<svg height="512" viewBox="0 0 512 512" width="512" xmlns="http://www.w3.org/2000/svg" xmlns:xlink="http://www.w3.org/1999/xlink"><linearGradient id="a" gradientUnits="userSpaceOnUse" x1="12.447" x2="529.392" y1="499.553" y2="-17.392"><stop offset="0" stop-color="#003f8a"/><stop offset=".518" stop-color="#00d7df"/><stop offset="1" stop-color="#006df0"/></linearGradient><linearGradient id="b" x1="12.45" x2="529.394" xlink:href="#a" y1="499.555" y2="-17.389"/><linearGradient id="c" x1="-13.074" x2="503.871" xlink:href="#a" y1="474.032" y2="-42.913"/><linearGradient id="d" x1="-75.553" x2="441.392" xlink:href="#a" y1="411.553" y2="-105.392"/><linearGradient id="e" x1="100.447" x2="617.392" xlink:href="#a" y1="587.553" y2="70.608"/><linearGradient id="h" x1="12.447" x2="529.392" xlink:href="#a" y1="499.553" y2="-17.392"/><linearGradient id="j" x1="136.898" x2="653.842" xlink:href="#a" y1="624.004" y2="107.059"/><linearGradient id="k" x1="-112.004" x2="404.941" xlink:href="#a" y1="375.102" y2="-141.842"/><g><path d="m431.36 80.64a248 248 0 1 0 -350.72 350.72 248 248 0 1 0 350.72-350.72zm-11.31 339.41a232 232 0 0 1 -328.1-328.1 232 232 0 0 1 328.1 328.1z" fill="url(#a)"/><path d="m408.74 103.27a216 216 0 0 0 -305.48 305.47 216 216 0 0 0 305.48-305.47zm-152.74 352.73c-110.28 0-200-89.72-200-200s89.72-200 200-200 200 89.72 200 200-89.72 200-200 200z" fill="url(#b)"/><path d="m263.94 225h-.009a8.015 8.015 0 0 0 .069-1v-80l9.6 12.8a8 8 0 1 0 12.8-9.6l-24-32a8 8 0 0 0 -12.8 0l-24 32a8 8 0 0 0 12.8 9.6l9.6-12.8v80a8.015 8.015 0 0 0 .069 1h-.009a31.425 31.425 0 0 0 -8.3 3.44l-18.1-18.1a8 8 0 0 0 -11.32 11.32l18.1 18.1a31.992 31.992 0 1 0 35.5-14.76zm-7.94 47a16 16 0 0 1 -13.64-24.36l.01-.01a16.123 16.123 0 0 1 5.26-5.26l.01-.01a16 16 0 1 1 8.36 29.64z" fill="url(#c)"/><path d="m256 96a8 8 0 0 0 8-8v-16a8 8 0 0 0 -16 0v16a8 8 0 0 0 8 8z" fill="url(#d)"/><path d="m256 416a8 8 0 0 0 -8 8v16a8 8 0 0 0 16 0v-16a8 8 0 0 0 -8-8z" fill="url(#e)"/><path d="m440 248h-16a8 8 0 0 0 0 16h16a8 8 0 0 0 0-16z" fill="url(#e)"/><path d="m88 248h-16a8 8 0 0 0 0 16h16a8 8 0 0 0 0-16z" fill="url(#d)"/><path d="m380.45 120.236-11.313 11.313a8 8 0 0 0 11.314 11.314l11.314-11.314a8 8 0 0 0 -11.315-11.313z" fill="url(#h)"/><path d="m131.549 369.137-11.314 11.313a8 8 0 0 0 11.315 11.315l11.313-11.314a8 8 0 1 0 -11.314-11.314z" fill="url(#h)"/><path d="m380.451 369.137a8 8 0 1 0 -11.314 11.314l11.313 11.314a8 8 0 0 0 11.315-11.315z" fill="url(#j)"/><path d="m131.55 120.236a8 8 0 0 0 -11.315 11.313l11.314 11.314a8 8 0 1 0 11.314-11.314z" fill="url(#k)"/></g></svg>